#N canvas 446 26 544 659 10;
#N canvas 0 0 450 300 (subpatch) 0;
#X array array1 128 float 0;
#X coords 0 260 127 -5 400 140 1;
#X restore 100 274 graph;
#X obj 102 223 tabwrite array1;
#X msg 169 29 open 3;
#X msg 126 29 close;
#X obj 241 199 + 1;
#X obj 241 170 f;
#X obj 241 141 bang;
#X obj 189 199 mod 128;
#X obj 184 89 select 255;
#X msg 275 141 0;
#X obj 169 62 comport \$1 115200;
#X text 224 28 comport number goes here;
#X text 285 193 this patch displays the 128 output bins in log format
;
#X connect 2 0 10 0;
#X connect 3 0 10 0;
#X connect 4 0 5 1;
#X connect 5 0 4 0;
#X connect 5 0 7 0;
#X connect 6 0 5 0;
#X connect 7 0 1 1;
#X connect 8 0 9 0;
#X connect 8 1 6 0;
#X connect 8 1 1 0;
#X connect 9 0 5 1;
#X connect 10 0 8 0;
